<?xml version="1.0" encoding="UTF-8" standalone="no"?>
<!DOCTYPE svg PUBLIC "-//W3C//DTD SVG 1.1//EN" "http://www.w3.org/Graphics/SVG/1.1/DTD/svg11.dtd">
<svg width="100%" height="100%" viewBox="0 0 16 16" version="1.1" xmlns="http://www.w3.org/2000/svg" xmlns:xlink="http://www.w3.org/1999/xlink" xml:space="preserve" xmlns:serif="http://www.serif.com/" style="fill-rule:evenodd;clip-rule:evenodd;stroke-linejoin:round;stroke-miterlimit:2;">
    <g transform="matrix(3.51261,0,0,3.51261,-6.37218,-9.95292)">
        <path d="M6.37,3.972C6.37,3.343 5.859,2.833 5.231,2.833L2.953,2.833C2.324,2.833 1.814,3.343 1.814,3.972L1.814,6.25C1.814,6.879 2.324,7.389 2.953,7.389L5.231,7.389C5.859,7.389 6.37,6.879 6.37,6.25L6.37,3.972Z" style="fill:rgb(30,41,59);"/>
    </g>
    <g transform="matrix(1,0,0,1,-3.93674,6.87262)">
        <g transform="matrix(16,0,0,16,6.85674,6.96738)">
            <path d="M0.034,-0L0.15,-0.73L0.392,-0.73C0.457,-0.73 0.508,-0.714 0.546,-0.681C0.583,-0.648 0.601,-0.603 0.601,-0.546C0.601,-0.533 0.6,-0.519 0.598,-0.505C0.591,-0.46 0.574,-0.421 0.549,-0.387C0.524,-0.353 0.491,-0.327 0.452,-0.308C0.412,-0.289 0.368,-0.28 0.32,-0.28L0.203,-0.28L0.159,-0L0.034,-0ZM0.338,-0.392C0.373,-0.392 0.403,-0.402 0.428,-0.423C0.452,-0.444 0.467,-0.471 0.472,-0.505C0.473,-0.514 0.474,-0.521 0.474,-0.526C0.474,-0.555 0.465,-0.577 0.448,-0.594C0.43,-0.61 0.405,-0.618 0.374,-0.618L0.256,-0.618L0.221,-0.392L0.338,-0.392Z" style="fill:rgb(241,245,249);fill-rule:nonzero;"/>
        </g>
    </g>
</svg>
